<?xml version="1.0" standalone="no"?>
<!DOCTYPE svg PUBLIC "-//W3C//DTD SVG 20010904//EN"
 "http://www.w3.org/TR/2001/REC-SVG-20010904/DTD/svg10.dtd">
<svg version="1.0" xmlns="http://www.w3.org/2000/svg"
 width="1280.000000pt" height="1246.000000pt" viewBox="0 0 1280.000000 1246.000000"
 preserveAspectRatio="xMidYMid meet">
<metadata>
Created by potrace 1.15, written by Peter Selinger 2001-2017
</metadata>
<g transform="translate(0.000000,1246.000000) scale(0.100000,-0.100000)"
fill="#000000" stroke="none">
<path d="M7731 12428 c-17 -18 -255 -294 -528 -614 l-498 -581 -190 5 c-638
15 -1294 -106 -1896 -351 l-156 -63 -679 638 c-373 351 -689 640 -702 644 -27
7 -52 -11 -52 -38 0 -19 64 -328 290 -1402 l101 -480 -33 -25 c-94 -73 -281
-246 -423 -392 -330 -338 -582 -684 -813 -1120 l-62 -116 -1032 -2 c-708 -2
-1037 -6 -1045 -13 -23 -19 -14 -46 30 -81 23 -19 395 -287 827 -597 432 -310
789 -566 794 -571 5 -4 -1 -72 -12 -156 -39 -276 -47 -392 -46 -713 0 -380 25
-632 94 -963 11 -50 18 -92 17 -93 -1 -1 -364 -261 -807 -579 -443 -318 -824
-593 -847 -612 -46 -36 -51 -49 -30 -76 14 -20 -60 -16 1362 -67 468 -17 855
-32 860 -34 6 -2 39 -51 74 -109 87 -144 263 -387 401 -553 130 -158 429 -461
571 -580 l96 -81 -63 -179 c-34 -98 -129 -368 -209 -599 -81 -231 -195 -559
-255 -730 -60 -171 -142 -408 -184 -527 -42 -120 -76 -224 -76 -232 0 -21 27
-39 52 -34 13 3 485 350 1050 771 l1027 767 168 -56 c424 -141 885 -226 1332
-243 l165 -6 470 -776 c259 -427 477 -784 485 -793 17 -20 45 -21 61 -2 6 8
17 37 24 63 8 26 100 368 206 758 106 391 209 772 229 849 l37 139 120 42
c454 159 907 403 1292 696 68 52 130 98 138 104 10 7 279 -79 946 -303 513
-172 941 -312 951 -312 9 0 22 11 28 24 10 21 5 35 -36 108 -38 65 -779 1348
-881 1523 l-23 41 49 78 c303 471 537 1048 650 1598 16 77 31 141 32 142 2 1
66 25 143 53 77 29 356 131 620 228 264 97 554 204 645 237 91 33 175 66 188
74 28 19 28 49 -1 68 -20 14 -400 174 -1288 543 l-256 107 -12 105 c-69 612
-292 1286 -606 1831 -58 100 -65 118 -54 135 7 11 203 323 437 694 234 371
427 683 430 693 2 10 -1 25 -8 33 -24 29 64 55 -1029 -306 -315 -104 -578
-189 -584 -189 -5 0 -48 35 -95 78 -523 477 -1086 814 -1727 1032 l-140 48 -2
129 c-2 70 -7 387 -13 703 -9 525 -11 576 -27 587 -26 20 -39 16 -72 -19z"/>
</g>
</svg>
