<?xml version="1.0" standalone="no"?>
<!DOCTYPE svg PUBLIC "-//W3C//DTD SVG 20010904//EN"
 "http://www.w3.org/TR/2001/REC-SVG-20010904/DTD/svg10.dtd">
<svg version="1.0" xmlns="http://www.w3.org/2000/svg"
 width="890.000000pt" height="736.000000pt" viewBox="0 0 890.000000 736.000000"
 preserveAspectRatio="xMidYMid meet">
<metadata>
Created by potrace 1.15, written by Peter Selinger 2001-2017
</metadata>
<g transform="translate(0.000000,736.000000) scale(0.100000,-0.100000)"
fill="#000000" stroke="none">
<path d="M2435 7119 c-315 -37 -581 -288 -650 -614 -22 -105 -22 -5545 0
-5650 35 -165 115 -307 234 -417 124 -114 265 -179 429 -198 118 -13 3886 -13
4004 0 330 38 592 282 663 615 22 105 22 5545 0 5650 -35 165 -115 307 -234
417 -124 114 -265 179 -429 198 -106 12 -3913 11 -4017 -1z m967 -765 c157
-38 301 -156 374 -308 45 -93 57 -161 52 -281 -9 -189 -97 -340 -260 -445 -78
-51 -151 -78 -238 -88 -136 -16 -263 13 -378 88 -163 105 -251 256 -260 445
-5 120 7 188 52 281 120 250 387 374 658 308z m2380 0 c158 -38 300 -155 374
-308 45 -93 57 -161 52 -281 -9 -189 -97 -340 -260 -445 -115 -75 -242 -104
-378 -88 -87 10 -160 37 -238 88 -163 105 -251 256 -260 445 -6 124 8 193 58
293 121 240 387 361 652 296z"/>
<path d="M240 5980 l0 -380 570 0 570 0 0 380 0 380 -570 0 -570 0 0 -380z"/>
<path d="M7520 5980 l0 -380 570 0 570 0 0 380 0 380 -570 0 -570 0 0 -380z"/>
<path d="M240 4450 l0 -380 570 0 570 0 0 380 0 380 -570 0 -570 0 0 -380z"/>
<path d="M7520 4450 l0 -380 570 0 570 0 0 380 0 380 -570 0 -570 0 0 -380z"/>
<path d="M240 2910 l0 -380 570 0 570 0 0 380 0 380 -570 0 -570 0 0 -380z"/>
<path d="M7520 2910 l0 -380 570 0 570 0 0 380 0 380 -570 0 -570 0 0 -380z"/>
<path d="M240 1380 l0 -380 570 0 570 0 0 380 0 380 -570 0 -570 0 0 -380z"/>
<path d="M7520 1380 l0 -380 570 0 570 0 0 380 0 380 -570 0 -570 0 0 -380z"/>
</g>
</svg>
