<svg id="svg" version="1.1" xmlns="http://www.w3.org/2000/svg" xmlns:xlink="http://www.w3.org/1999/xlink" width="400" height="261.3636363636364" viewBox="0, 0, 400,261.3636363636364">
  <g id="svgg">
    <path id="path0" d="M50.037 5.544 C 48.095 7.334,45.153 15.248,43.801 22.319 C 43.113 25.918,41.801 30.865,39.218 39.608 C 38.368 42.484,37.315 46.526,36.878 48.591 C 36.047 52.519,34.318 59.033,32.810 63.922 C 31.682 67.577,30.658 71.552,29.284 77.611 C 28.685 80.251,27.745 83.840,27.195 85.585 C 26.645 87.330,25.815 89.966,25.352 91.442 C 23.504 97.333,22.681 97.813,13.987 98.071 C 5.290 98.330,3.107 99.062,2.230 102.015 C 1.736 103.679,1.612 251.883,2.103 253.652 C 2.523 255.163,3.468 256.059,5.948 257.293 L 8.235 258.431 199.981 258.498 L 391.727 258.565 393.184 258.023 C 395.421 257.190,397.075 256.016,397.725 254.801 L 398.301 253.725 398.301 178.301 C 398.301 105.869,398.282 102.827,397.823 101.637 C 396.802 98.993,394.585 98.285,386.797 98.120 C 379.037 97.955,377.673 97.533,376.094 94.809 C 375.093 93.083,371.849 82.107,370.329 75.304 C 369.563 71.873,368.271 66.909,367.460 64.273 C 365.725 58.636,363.923 51.749,363.127 47.712 C 362.815 46.131,361.980 42.954,361.271 40.654 C 360.561 38.353,359.742 35.529,359.449 34.379 C 359.156 33.229,358.514 30.896,358.021 29.195 C 357.529 27.494,356.826 24.552,356.459 22.659 C 355.853 19.525,353.706 12.218,352.336 8.627 C 349.878 2.182,344.496 3.271,342.641 10.588 C 342.276 12.026,341.558 14.438,341.046 15.948 C 340.533 17.458,339.816 19.869,339.451 21.307 C 339.087 22.745,338.378 25.275,337.875 26.928 C 337.373 28.582,336.615 31.641,336.191 33.725 C 335.767 35.810,334.900 39.163,334.264 41.176 C 333.628 43.190,332.857 45.837,332.550 47.059 C 332.243 48.281,331.588 50.567,331.093 52.139 C 330.598 53.711,329.890 56.587,329.519 58.530 C 329.148 60.473,328.333 63.716,327.708 65.737 C 327.083 67.758,326.322 70.412,326.016 71.634 C 325.710 72.856,325.003 75.271,324.445 77.001 C 323.886 78.730,323.121 81.848,322.744 83.929 C 320.590 95.830,318.484 98.176,310.116 97.997 C 302.887 97.841,302.678 97.601,299.240 85.490 C 298.730 83.693,297.893 80.812,297.380 79.089 C 296.868 77.366,295.978 73.837,295.404 71.248 C 294.436 66.879,293.039 61.755,290.459 53.104 C 289.885 51.180,288.931 47.357,288.340 44.607 C 287.748 41.858,286.806 38.113,286.246 36.286 C 284.377 30.185,282.069 21.608,281.290 17.864 C 279.214 7.889,276.402 3.520,272.820 4.703 C 270.498 5.469,269.152 7.973,267.830 13.987 C 267.451 15.712,266.574 18.889,265.880 21.046 C 265.187 23.203,264.428 25.732,264.192 26.667 C 263.957 27.601,263.360 29.778,262.867 31.503 C 262.373 33.229,261.618 36.346,261.187 38.431 C 260.757 40.516,259.872 43.909,259.221 45.971 C 258.570 48.032,257.736 50.914,257.369 52.376 C 257.002 53.837,256.359 56.112,255.940 57.432 C 255.521 58.751,254.814 61.634,254.369 63.837 C 253.924 66.040,253.102 69.196,252.542 70.850 C 251.982 72.503,251.227 75.046,250.864 76.501 C 250.502 77.955,249.793 80.459,249.289 82.065 C 248.786 83.670,248.033 86.665,247.616 88.719 C 246.021 96.576,244.651 97.813,237.345 97.987 C 232.012 98.114,230.633 97.816,229.194 96.223 C 228.176 95.096,228.161 95.053,225.761 86.275 C 224.955 83.327,223.650 78.856,222.861 76.340 C 222.072 73.824,221.133 70.294,220.773 68.497 C 219.943 64.352,218.131 57.538,216.427 52.157 C 215.698 49.856,214.596 45.727,213.978 42.981 C 212.708 37.336,211.619 33.252,209.419 25.882 C 208.582 23.078,207.366 18.490,206.716 15.686 C 204.662 6.828,202.731 3.885,199.410 4.549 C 196.495 5.132,195.201 7.639,193.201 16.581 C 192.625 19.158,191.455 23.629,190.602 26.516 C 188.258 34.450,187.061 38.942,186.142 43.263 C 185.684 45.416,184.744 48.946,184.054 51.106 C 182.418 56.223,180.105 64.863,179.224 69.150 C 178.840 71.020,177.957 74.314,177.263 76.471 C 175.955 80.533,173.299 89.871,172.803 92.153 C 171.716 97.148,170.492 97.908,163.529 97.908 C 155.418 97.908,154.119 96.849,152.570 88.969 C 152.196 87.072,151.478 84.203,150.974 82.594 C 150.469 80.984,149.760 78.478,149.397 77.023 C 149.033 75.569,148.219 72.791,147.586 70.850 C 146.953 68.908,146.122 65.734,145.739 63.796 C 145.356 61.858,144.692 59.093,144.264 57.652 C 143.836 56.211,143.040 53.386,142.496 51.373 C 141.952 49.359,141.089 46.355,140.579 44.696 C 140.068 43.036,139.344 40.213,138.970 38.421 C 138.174 34.615,136.140 27.062,134.484 21.767 C 133.844 19.720,132.845 16.074,132.265 13.666 C 130.472 6.216,128.520 3.663,125.404 4.691 C 122.361 5.696,120.668 9.434,118.310 20.357 C 117.926 22.134,116.842 26.252,115.900 29.507 C 113.381 38.214,112.805 40.374,111.477 46.101 C 110.815 48.953,109.817 52.776,109.258 54.597 C 107.816 59.298,105.010 69.871,104.182 73.725 C 103.795 75.523,103.011 78.464,102.439 80.261 C 101.867 82.059,100.928 85.291,100.353 87.444 C 97.694 97.399,96.817 98.188,88.627 97.995 C 81.476 97.827,79.461 95.270,77.386 83.731 C 77.096 82.117,76.400 79.352,75.841 77.588 C 75.281 75.823,74.512 73.144,74.133 71.634 C 73.753 70.124,72.985 67.477,72.427 65.752 C 71.868 64.026,71.100 60.987,70.721 58.998 C 70.342 57.010,69.636 54.068,69.152 52.462 C 68.667 50.856,68.021 48.542,67.716 47.320 C 67.410 46.098,66.647 43.510,66.020 41.569 C 65.392 39.627,64.509 36.292,64.056 34.157 C 63.603 32.021,62.836 28.962,62.352 27.359 C 61.868 25.756,61.175 23.268,60.810 21.830 C 60.446 20.392,59.787 18.157,59.346 16.863 C 58.905 15.569,58.189 13.109,57.755 11.398 C 56.095 4.852,53.184 2.644,50.037 5.544 M53.664 33.604 C 55.113 35.054,56.151 38.018,57.139 43.529 C 57.500 45.542,58.257 48.601,58.822 50.327 C 59.386 52.052,60.202 54.884,60.635 56.620 C 61.068 58.356,61.838 61.104,62.347 62.725 C 62.855 64.347,63.501 66.949,63.782 68.509 C 64.371 71.782,64.856 73.739,65.627 75.948 C 65.928 76.810,66.624 79.163,67.174 81.176 C 67.724 83.190,68.606 86.307,69.134 88.105 C 70.710 93.473,70.408 96.152,68.088 97.369 C 67.084 97.895,66.703 97.908,52.549 97.908 L 38.039 97.908 36.829 97.197 C 33.861 95.452,34.334 91.386,39.579 73.595 C 41.208 68.068,41.741 66.017,43.789 57.386 C 44.301 55.229,45.237 51.758,45.869 49.673 C 46.501 47.588,47.672 43.678,48.470 40.984 C 50.746 33.307,51.828 31.769,53.664 33.604 M201.522 33.595 C 202.683 35.071,205.837 45.654,207.453 53.499 C 207.813 55.246,208.460 57.835,208.891 59.252 C 211.579 68.089,213.495 75.172,214.221 78.954 C 214.567 80.752,215.327 83.693,215.911 85.490 C 218.450 93.300,218.399 95.699,215.660 97.255 L 214.510 97.908 200.131 97.908 C 186.273 97.908,185.714 97.890,184.709 97.386 C 181.794 95.923,181.742 93.405,184.448 84.839 C 185.085 82.825,185.855 79.768,186.159 78.046 C 186.463 76.324,187.104 73.618,187.584 72.033 C 188.063 70.447,188.696 68.209,188.990 67.059 C 189.283 65.908,190.104 63.085,190.813 60.784 C 191.522 58.484,192.357 55.307,192.668 53.725 C 194.083 46.529,197.270 35.632,198.425 34.038 C 199.405 32.684,200.664 32.504,201.522 33.595 M348.683 33.529 C 349.819 34.769,350.571 36.768,352.670 44.136 C 353.354 46.534,354.390 50.085,354.973 52.026 C 355.556 53.967,356.521 57.709,357.118 60.341 C 358.104 64.688,359.437 69.561,361.926 77.908 C 362.772 80.746,364.723 89.313,365.223 92.381 C 365.676 95.165,364.653 96.952,362.198 97.665 C 360.046 98.291,333.298 98.104,332.112 97.455 C 329.704 96.137,329.393 93.128,331.106 87.712 C 331.652 85.987,332.479 83.163,332.944 81.438 C 333.409 79.712,334.220 76.948,334.745 75.294 C 335.271 73.641,335.997 70.650,336.360 68.648 C 336.722 66.647,337.420 63.764,337.910 62.243 C 338.400 60.722,339.108 58.242,339.483 56.732 C 339.858 55.222,340.681 52.392,341.313 50.443 C 341.944 48.494,342.709 45.494,343.013 43.776 C 344.499 35.363,346.707 31.373,348.683 33.529 M127.241 33.856 C 128.599 34.808,131.087 42.185,132.398 49.150 C 132.764 51.092,133.539 54.092,134.121 55.817 C 134.703 57.542,135.478 60.131,135.842 61.569 C 136.207 63.007,136.902 65.497,137.386 67.103 C 137.871 68.709,138.577 71.650,138.956 73.639 C 139.334 75.628,140.055 78.490,140.558 80.000 C 141.380 82.464,142.904 87.872,143.990 92.173 C 144.724 95.081,143.825 96.926,141.318 97.655 C 138.953 98.343,112.160 98.107,110.722 97.386 C 108.361 96.201,107.984 94.278,109.284 90.055 C 109.717 88.648,110.422 85.767,110.851 83.653 C 111.280 81.538,111.916 78.822,112.265 77.617 C 112.614 76.411,113.206 74.216,113.580 72.738 C 113.955 71.261,114.849 68.204,115.568 65.947 C 116.288 63.689,117.232 60.075,117.667 57.914 C 118.985 51.367,122.806 38.291,124.216 35.500 C 125.160 33.631,126.151 33.093,127.241 33.856 M275.175 34.374 C 276.523 35.803,279.693 45.893,282.331 57.154 C 283.034 60.157,284.080 64.144,284.654 66.013 C 286.479 71.957,288.616 80.087,289.302 83.696 C 289.666 85.618,290.331 88.366,290.778 89.804 C 292.113 94.092,291.791 96.149,289.602 97.318 L 288.497 97.908 273.725 97.908 C 259.685 97.908,258.904 97.884,257.943 97.407 C 255.857 96.371,255.433 94.222,256.586 90.536 C 256.937 89.415,257.534 87.261,257.912 85.752 C 258.291 84.242,259.053 81.654,259.606 80.000 C 260.159 78.346,260.917 75.385,261.290 73.420 C 261.663 71.454,262.370 68.513,262.862 66.884 C 263.353 65.254,264.005 62.922,264.311 61.699 C 264.616 60.477,265.382 57.889,266.012 55.948 C 266.642 54.007,267.353 51.359,267.592 50.065 C 268.809 43.474,271.296 35.579,272.552 34.324 C 273.642 33.234,274.109 33.243,275.175 34.374 M384.030 107.209 C 385.857 107.601,386.950 108.410,387.712 109.935 L 388.366 111.242 388.366 178.170 L 388.366 245.098 387.651 246.315 C 387.136 247.190,386.586 247.703,385.690 248.145 L 384.444 248.758 200.654 248.837 C 64.033 248.896,16.506 248.840,15.474 248.619 C 13.784 248.257,12.510 247.211,11.899 245.685 C 11.373 244.371,11.262 115.485,11.784 112.184 C 12.247 109.256,13.492 107.802,16.078 107.173 C 17.408 106.849,382.519 106.885,384.030 107.209 M127.057 135.931 C 125.103 136.525,123.530 137.894,122.560 139.843 L 121.961 141.046 121.961 178.039 L 121.961 215.033 122.563 216.340 C 123.291 217.919,124.223 218.943,125.621 219.697 L 126.667 220.261 199.469 220.329 C 279.814 220.403,273.974 220.521,275.962 218.776 C 278.575 216.482,278.468 218.312,278.379 177.124 L 278.301 141.307 277.676 139.925 C 276.885 138.174,275.121 136.595,273.378 136.077 C 271.937 135.649,128.455 135.505,127.057 135.931 M265.678 145.830 C 266.889 146.246,268.115 147.260,268.702 148.332 C 269.118 149.091,269.150 151.242,269.150 177.908 L 269.150 206.667 268.497 207.974 C 266.881 211.204,271.596 211.008,197.908 210.917 C 130.256 210.834,134.453 210.934,132.672 209.370 C 130.898 207.812,130.963 209.092,131.041 177.349 L 131.111 148.851 131.807 147.799 C 132.600 146.601,133.879 145.902,135.798 145.617 C 138.294 145.247,264.582 145.454,265.678 145.830 M47.451 148.684 C 37.220 150.098,26.348 159.804,23.790 169.806 C 19.136 188.005,31.109 205.875,48.943 207.348 C 59.563 208.225,66.782 205.663,74.012 198.451 C 87.534 184.963,83.518 160.452,66.420 152.113 C 59.616 148.795,53.995 147.779,47.451 148.684 M343.224 148.764 C 316.749 153.232,309.012 187.599,331.113 202.557 C 342.263 210.102,356.351 209.294,367.076 200.494 C 375.278 193.763,379.213 181.131,376.388 170.602 C 372.491 156.080,357.677 146.325,343.224 148.764 M56.471 158.460 C 64.177 159.654,69.172 164.212,71.889 172.529 C 74.433 180.315,71.414 187.781,66.696 185.374 C 65.359 184.692,45.648 164.994,44.967 163.660 C 42.860 159.529,48.095 157.163,56.471 158.460 M350.850 158.291 C 357.648 159.330,362.585 162.609,365.707 168.155 C 370.727 177.074,368.665 188.126,362.425 185.743 C 360.952 185.180,341.778 166.218,340.531 164.090 C 338.054 159.863,342.988 157.089,350.850 158.291 M38.824 171.312 C 40.023 172.128,56.878 188.946,58.203 190.648 C 61.853 195.339,59.591 198.431,52.510 198.431 C 41.191 198.431,32.057 189.510,32.033 178.431 C 32.019 171.490,34.800 168.574,38.824 171.312 M333.914 171.201 C 336.315 172.873,354.426 191.280,355.173 192.807 C 356.952 196.442,353.955 198.693,347.337 198.693 C 337.202 198.693,327.954 189.819,327.141 179.315 C 326.630 172.714,330.106 168.549,333.914 171.201 " stroke="none" fill="#393939" fill-rule="evenodd"></path>
  </g>
</svg>
